<svg class="diagram-root" style="background: #f5f6f6" xmlns="http://www.w3.org/2000/svg" xmlns:xlink="http://www.w3.org/1999/xlink"><style>.diagram-root { font-family: "Helvetica Neue", sans-serif; font-size: 12px; } .t { overflow: visible; } .t-bg { y: 40; fill: #fff;   } .th { fill: #005aa0;   } .tht { fill: #fff; font-size: 14px;  } .tf { fill: #323c46; overflow: visible; } .tf.pk { fill: #005aa0; font-weight: bold; } .tf.fk { font-weight: bold; } .ty { fill: #adb1b5; font-weight: normal; text-anchor: end; } .r { fill: transparent; stroke: #c3c3c3; stroke-width: 1; } .l { stroke: 1; } .i { fill: #c2c7ce; stroke: #c2c7ce; } .i.ix { fill: #afb3b6; stroke: #000; } .fa { fill: transparent; overflow: visible; } .fa .bg.hover { fill: #f7f7f7; } .c { cy: 12; r: 4; stroke: #d2d2dc; fill: #d2d2dc; } .hr { fill: transparent; stroke: #323c46; stroke-opacity: 0.035; stroke-width: 13; } .dc { stroke: #fa5a3c; fill: #fa5a3c; } .x { stroke: white; stroke-width: 1; } .hl .th { fill: #1b9bff; } .hl .tht {  } .fhl .bg { fill: #e7f4ff; } .fhls .bg {  } .r.hl { stroke: #1b9bff; } .dim { opacity: 0.25; }</style><g class="drawing-wrapper" transform="translate(22, 33) scale(1,1)"><g class="rs"><path d="M 216.09 54 m -1, 0 a 1,1 0 1,0 2,0 a 1,1 0 1,0 -2,0 M 216.09 54 m -0.5, 0 a 0.5,0.5 0 1,0 1,0 a 0.5,0.5 0 1,0 -1,0  M216.09 54 L216.09 54 228.09 54 M 216.09 60 m -1, 0 a 1,1 0 1,0 2,0 a 1,1 0 1,0 -2,0 M 216.09 60 m -0.5, 0 a 0.5,0.5 0 1,0 1,0 a 0.5,0.5 0 1,0 -1,0  M216.09 60 L216.09 60 223.09 54 216.09 48 M 216.09 48 m -1, 0 a 1,1 0 1,0 2,0 a 1,1 0 1,0 -2,0 M 216.09 48 m -0.5, 0 a 0.5,0.5 0 1,0 1,0 a 0.5,0.5 0 1,0 -1,0  M228.09 54 Q 247.68 54, 267.26 93.71 T 306.42857142857116 133.42857142857142 M 318.42857142857116 133.42857142857142 m -1, 0 a 1,1 0 1,0 2,0 a 1,1 0 1,0 -2,0 M 318.42857142857116 133.42857142857142 m -0.5, 0 a 0.5,0.5 0 1,0 1,0 a 0.5,0.5 0 1,0 -1,0  M318.42857142857116 133.42857142857142 L318.42857142857116 133.42857142857142 306.42857142857116 133.42857142857142 M312.42857142857116 139.42857142857142 L312.42857142857116 139.42857142857142 312.42857142857116 127.42857142857142" id="h464902335" class="r"></path><path d="M 216.09 79 m -1, 0 a 1,1 0 1,0 2,0 a 1,1 0 1,0 -2,0 M 216.09 79 m -0.5, 0 a 0.5,0.5 0 1,0 1,0 a 0.5,0.5 0 1,0 -1,0  M216.09 79 L216.09 79 228.09 79 M 216.09 85 m -1, 0 a 1,1 0 1,0 2,0 a 1,1 0 1,0 -2,0 M 216.09 85 m -0.5, 0 a 0.5,0.5 0 1,0 1,0 a 0.5,0.5 0 1,0 -1,0  M216.09 85 L216.09 85 223.09 79 216.09 73 M 216.09 73 m -1, 0 a 1,1 0 1,0 2,0 a 1,1 0 1,0 -2,0 M 216.09 73 m -0.5, 0 a 0.5,0.5 0 1,0 1,0 a 0.5,0.5 0 1,0 -1,0  M228.09 79 Q 247.68 79, 267.26 118.71 T 306.42857142857116 158.42857142857142 M 318.42857142857116 158.42857142857142 m -1, 0 a 1,1 0 1,0 2,0 a 1,1 0 1,0 -2,0 M 318.42857142857116 158.42857142857142 m -0.5, 0 a 0.5,0.5 0 1,0 1,0 a 0.5,0.5 0 1,0 -1,0  M318.42857142857116 158.42857142857142 L318.42857142857116 158.42857142857142 306.42857142857116 158.42857142857142 M312.42857142857116 164.42857142857142 L312.42857142857116 164.42857142857142 312.42857142857116 152.42857142857142" id="h1480186693" class="r"></path><path d="M 216.09 104 m -1, 0 a 1,1 0 1,0 2,0 a 1,1 0 1,0 -2,0 M 216.09 104 m -0.5, 0 a 0.5,0.5 0 1,0 1,0 a 0.5,0.5 0 1,0 -1,0  M216.09 104 L216.09 104 228.09 104 M 216.09 110 m -1, 0 a 1,1 0 1,0 2,0 a 1,1 0 1,0 -2,0 M 216.09 110 m -0.5, 0 a 0.5,0.5 0 1,0 1,0 a 0.5,0.5 0 1,0 -1,0  M216.09 110 L216.09 110 223.09 104 216.09 98 M 216.09 98 m -1, 0 a 1,1 0 1,0 2,0 a 1,1 0 1,0 -2,0 M 216.09 98 m -0.5, 0 a 0.5,0.5 0 1,0 1,0 a 0.5,0.5 0 1,0 -1,0  M228.09 104 Q 247.68 104, 267.26 143.71 T 306.42857142857116 183.42857142857142 M 318.42857142857116 183.42857142857142 m -1, 0 a 1,1 0 1,0 2,0 a 1,1 0 1,0 -2,0 M 318.42857142857116 183.42857142857142 m -0.5, 0 a 0.5,0.5 0 1,0 1,0 a 0.5,0.5 0 1,0 -1,0  M318.42857142857116 183.42857142857142 L318.42857142857116 183.42857142857142 306.42857142857116 183.42857142857142 M312.42857142857116 189.42857142857142 L312.42857142857116 189.42857142857142 312.42857142857116 177.42857142857142" id="h2327245681" class="r"></path></g><g class="hrs"></g><g class="ts"><svg width="216.09" height="650" x="0" y="-3" id="h167532279" class="t"><rect height="40" width="216.09" class="th"></rect><text x="13" y="25" class="tht">European_football</text><rect height="610" width="216.09" class="t-bg"></rect><text x="13" y="61" class="tf pk">Team<tspan x="203.09" class="ty">varchar</tspan></text><path d="M7,14A2,2 0 0,1 5,12A2,2 0 0,1 7,10A2,2 0 0,1 9,12A2,2 0 0,1 7,14M12.65,10C11.83,7.67 9.61,6 7, 6A6, 6 0 0, 0 1, 12A6, 6 0 0, 0 7, 18C9.61, 18 11.83, 16.33 12.65, 14H17V18H21V14H23V10H12.65Z" class="i pk" transform="translate(143.076328125, 48) scale(0.65)"></path><text x="13" y="86" class="tf pk">Season<tspan x="203.09" class="ty">varchar</tspan></text><path d="M7,14A2,2 0 0,1 5,12A2,2 0 0,1 7,10A2,2 0 0,1 9,12A2,2 0 0,1 7,14M12.65,10C11.83,7.67 9.61,6 7, 6A6, 6 0 0, 0 1, 12A6, 6 0 0, 0 7, 18C9.61, 18 11.83, 16.33 12.65, 14H17V18H21V14H23V10H12.65Z" class="i pk" transform="translate(143.076328125, 73) scale(0.65)"></path><text x="13" y="111" class="tf pk">Country<tspan x="203.09" class="ty">varchar</tspan></text><path d="M7,14A2,2 0 0,1 5,12A2,2 0 0,1 7,10A2,2 0 0,1 9,12A2,2 0 0,1 7,14M12.65,10C11.83,7.67 9.61,6 7, 6A6, 6 0 0, 0 1, 12A6, 6 0 0, 0 7, 18C9.61, 18 11.83, 16.33 12.65, 14H17V18H21V14H23V10H12.65Z" class="i pk" transform="translate(143.076328125, 98) scale(0.65)"></path><text x="13" y="136" class="tf">Played Matches<tspan x="203.09" class="ty">int</tspan></text><text x="13" y="161" class="tf">Home Matches<tspan x="203.09" class="ty">int</tspan></text><text x="13" y="186" class="tf">Away Matches<tspan x="203.09" class="ty">int</tspan></text><text x="13" y="211" class="tf">Wins<tspan x="203.09" class="ty">int</tspan></text><text x="13" y="236" class="tf">Home Wins<tspan x="203.09" class="ty">int</tspan></text><text x="13" y="261" class="tf">Away Wins<tspan x="203.09" class="ty">int</tspan></text><text x="13" y="286" class="tf">Draws<tspan x="203.09" class="ty">int</tspan></text><text x="13" y="311" class="tf">Loses<tspan x="203.09" class="ty">int</tspan></text><text x="13" y="336" class="tf">Point Per Game<tspan x="203.09" class="ty">float</tspan></text><text x="13" y="361" class="tf">League Position<tspan x="203.09" class="ty">int</tspan></text><text x="13" y="386" class="tf">performance_rank<tspan x="203.09" class="ty">int</tspan></text><text x="13" y="411" class="tf">Goals Scored<tspan x="203.09" class="ty">int</tspan></text><text x="13" y="436" class="tf">Goals Conceded<tspan x="203.09" class="ty">int</tspan></text><text x="13" y="461" class="tf">Home Goals<tspan x="203.09" class="ty">int</tspan></text><text x="13" y="486" class="tf">Away Goals<tspan x="203.09" class="ty">int</tspan></text><text x="13" y="511" class="tf">Shots<tspan x="203.09" class="ty">int</tspan></text><text x="13" y="536" class="tf">Fouls<tspan x="203.09" class="ty">int</tspan></text><text x="13" y="561" class="tf">Goals Per Match<tspan x="203.09" class="ty">float</tspan></text><text x="13" y="586" class="tf">Goals Conceded Per Match<tspan x="203.09" class="ty">float</tspan></text><text x="13" y="611" class="tf">Corners Per Match<tspan x="203.09" class="ty">float</tspan></text><text x="13" y="636" class="tf">Cards Per Match<tspan x="203.09" class="ty">float</tspan></text></svg><svg width="216.09" height="650" x="318.42857142857116" y="76.42857142857142" id="h412519982" class="t"><rect height="40" width="216.09" class="th"></rect><text x="13" y="25" class="tht">Champion_league</text><rect height="610" width="216.09" class="t-bg"></rect><text x="13" y="61" class="tf pk">Team<tspan x="203.09" class="ty">varchar</tspan></text><path d="M7,14A2,2 0 0,1 5,12A2,2 0 0,1 7,10A2,2 0 0,1 9,12A2,2 0 0,1 7,14M12.65,10C11.83,7.67 9.61,6 7, 6A6, 6 0 0, 0 1, 12A6, 6 0 0, 0 7, 18C9.61, 18 11.83, 16.33 12.65, 14H17V18H21V14H23V10H12.65Z" class="i pk" transform="translate(143.076328125, 48) scale(0.65)"></path><text x="13" y="86" class="tf pk">Season<tspan x="203.09" class="ty">varchar</tspan></text><path d="M7,14A2,2 0 0,1 5,12A2,2 0 0,1 7,10A2,2 0 0,1 9,12A2,2 0 0,1 7,14M12.65,10C11.83,7.67 9.61,6 7, 6A6, 6 0 0, 0 1, 12A6, 6 0 0, 0 7, 18C9.61, 18 11.83, 16.33 12.65, 14H17V18H21V14H23V10H12.65Z" class="i pk" transform="translate(143.076328125, 73) scale(0.65)"></path><text x="13" y="111" class="tf pk">Country<tspan x="203.09" class="ty">varchar</tspan></text><path d="M7,14A2,2 0 0,1 5,12A2,2 0 0,1 7,10A2,2 0 0,1 9,12A2,2 0 0,1 7,14M12.65,10C11.83,7.67 9.61,6 7, 6A6, 6 0 0, 0 1, 12A6, 6 0 0, 0 7, 18C9.61, 18 11.83, 16.33 12.65, 14H17V18H21V14H23V10H12.65Z" class="i pk" transform="translate(143.076328125, 98) scale(0.65)"></path><text x="13" y="136" class="tf">Played Matches<tspan x="203.09" class="ty">int</tspan></text><text x="13" y="161" class="tf">Home Matches<tspan x="203.09" class="ty">int</tspan></text><text x="13" y="186" class="tf">Away Matches<tspan x="203.09" class="ty">int</tspan></text><text x="13" y="211" class="tf">Wins<tspan x="203.09" class="ty">int</tspan></text><text x="13" y="236" class="tf">Home Wins<tspan x="203.09" class="ty">int</tspan></text><text x="13" y="261" class="tf">Away Wins<tspan x="203.09" class="ty">int</tspan></text><text x="13" y="286" class="tf">Draws<tspan x="203.09" class="ty">int</tspan></text><text x="13" y="311" class="tf">Loses<tspan x="203.09" class="ty">int</tspan></text><text x="13" y="336" class="tf">Point Per Game<tspan x="203.09" class="ty">float</tspan></text><text x="13" y="361" class="tf">League Position<tspan x="203.09" class="ty">int</tspan></text><text x="13" y="386" class="tf">performance_rank<tspan x="203.09" class="ty">int</tspan></text><text x="13" y="411" class="tf">Goals Scored<tspan x="203.09" class="ty">int</tspan></text><text x="13" y="436" class="tf">Goals Conceded<tspan x="203.09" class="ty">int</tspan></text><text x="13" y="461" class="tf">Home Goals<tspan x="203.09" class="ty">int</tspan></text><text x="13" y="486" class="tf">Away Goals<tspan x="203.09" class="ty">int</tspan></text><text x="13" y="511" class="tf">Shots<tspan x="203.09" class="ty">int</tspan></text><text x="13" y="536" class="tf">Fouls<tspan x="203.09" class="ty">int</tspan></text><text x="13" y="561" class="tf">Goals Per Match<tspan x="203.09" class="ty">float</tspan></text><text x="13" y="586" class="tf">Goals Conceded Per Match<tspan x="203.09" class="ty">float</tspan></text><text x="13" y="611" class="tf">Corners Per Match<tspan x="203.09" class="ty">float</tspan></text><text x="13" y="636" class="tf">Cards Per Match<tspan x="203.09" class="ty">float</tspan></text></svg></g></g><text class="qdbd-link" x="10" y="20">www.quickdatabasediagrams.com</text></svg>